<svg width="168" height="34" viewBox="0 0 168 34" fill="none" xmlns="http://www.w3.org/2000/svg">
<path d="M10.6053 18.25H23.8553L24.2053 19.25H10.1053L10.6053 18.25ZM35.3553 32.4C35.4886 32.4 35.5553 32.5 35.5553 32.7C35.5553 32.9 35.4886 33 35.3553 33C34.7219 33 33.7386 32.9667 32.4053 32.9C31.0719 32.8333 30.1053 32.8 29.5053 32.8C28.7719 32.8 27.8386 32.8333 26.7053 32.9C25.6386 32.9667 24.8219 33 24.2553 33C24.1219 33 24.0553 32.9 24.0553 32.7C24.0553 32.5 24.1219 32.4 24.2553 32.4C25.5219 32.4 26.4219 32.2833 26.9553 32.05C27.5219 31.8167 27.8053 31.4 27.8053 30.8C27.8053 30.3 27.6053 29.6 27.2053 28.7L16.1053 5.25L17.3553 3.7L7.65527 26.65C7.18861 27.7833 6.95527 28.7167 6.95527 29.45C6.95527 31.4167 8.58861 32.4 11.8553 32.4C12.0219 32.4 12.1053 32.5 12.1053 32.7C12.1053 32.9 12.0219 33 11.8553 33C11.2553 33 10.3886 32.9667 9.25527 32.9C7.98861 32.8333 6.88861 32.8 5.95527 32.8C5.08861 32.8 4.08861 32.8333 2.95527 32.9C1.95527 32.9667 1.12194 33 0.455273 33C0.288607 33 0.205273 32.9 0.205273 32.7C0.205273 32.5 0.288607 32.4 0.455273 32.4C1.38861 32.4 2.17194 32.2333 2.80527 31.9C3.47194 31.5333 4.08861 30.9167 4.65527 30.05C5.25527 29.15 5.90527 27.8667 6.60527 26.2L17.1553 1.3C17.2219 1.2 17.3386 1.15 17.5053 1.15C17.6719 1.15 17.7719 1.2 17.8053 1.3L29.6053 26.15C30.7386 28.6167 31.7053 30.2833 32.5053 31.15C33.3053 31.9833 34.2553 32.4 35.3553 32.4ZM63.2127 33C62.3794 33 60.7794 31.5833 58.4127 28.75C56.0794 25.8833 53.2627 21.95 49.9627 16.95L52.7627 16.1C55.6627 20.2667 58.0794 23.5167 60.0127 25.85C61.9794 28.15 63.7127 29.8167 65.2127 30.85C66.7127 31.8833 68.1794 32.4 69.6127 32.4C69.7127 32.4 69.7627 32.5 69.7627 32.7C69.7627 32.9 69.7127 33 69.6127 33H63.2127ZM50.6127 1.6C53.246 1.6 55.2794 2.2 56.7127 3.4C58.146 4.6 58.8627 6.2 58.8627 8.2C58.8627 9.96667 58.346 11.5833 57.3127 13.05C56.2794 14.4833 54.8794 15.6333 53.1127 16.5C51.3794 17.3333 49.5127 17.75 47.5127 17.75C47.3127 17.75 46.5627 17.7 45.2627 17.6V28.95C45.2627 29.9833 45.3627 30.7333 45.5627 31.2C45.7627 31.6667 46.146 31.9833 46.7127 32.15C47.3127 32.3167 48.246 32.4 49.5127 32.4C49.6127 32.4 49.6627 32.5 49.6627 32.7C49.6627 32.9 49.6127 33 49.5127 33C48.4794 33 47.6627 32.9833 47.0627 32.95L43.6127 32.9L40.2127 32.95C39.6127 32.9833 38.7627 33 37.6627 33C37.596 33 37.5627 32.9 37.5627 32.7C37.5627 32.5 37.596 32.4 37.6627 32.4C38.9294 32.4 39.8627 32.3167 40.4627 32.15C41.0627 31.95 41.4794 31.6167 41.7127 31.15C41.946 30.6833 42.0627 29.95 42.0627 28.95V5.8C42.0627 4.8 41.946 4.06667 41.7127 3.6C41.5127 3.13333 41.1127 2.81666 40.5127 2.65C39.946 2.45 39.0294 2.35 37.7627 2.35C37.6627 2.35 37.6127 2.25 37.6127 2.05C37.6127 1.85 37.6627 1.75 37.7627 1.75L40.2127 1.8C41.6127 1.86667 42.746 1.9 43.6127 1.9C44.346 1.9 45.0294 1.88333 45.6627 1.85C46.296 1.81667 46.8294 1.78333 47.2627 1.75C48.5294 1.65 49.646 1.6 50.6127 1.6ZM55.4627 9.65C55.4627 7.05 54.8794 5.18333 53.7127 4.05C52.5794 2.91666 50.9127 2.35 48.7127 2.35C47.4127 2.35 46.5127 2.58333 46.0127 3.05C45.5127 3.51666 45.2627 4.46666 45.2627 5.9V16.4C46.0627 16.5333 47.046 16.6 48.2127 16.6C50.8127 16.6 52.6627 16.0333 53.7627 14.9C54.896 13.7667 55.4627 12.0167 55.4627 9.65ZM74.4537 2.65C72.387 2.65 70.8204 3.18333 69.7537 4.25C68.7204 5.31666 67.9704 7.13333 67.5037 9.7C67.5037 9.76667 67.4037 9.8 67.2037 9.8C67.037 9.8 66.9537 9.76667 66.9537 9.7C67.087 8.5 67.237 6.93333 67.4037 5C67.5704 3.06667 67.6537 1.61667 67.6537 0.649999C67.6537 0.483333 67.737 0.399999 67.9037 0.399999C68.1037 0.399999 68.2037 0.483333 68.2037 0.649999C68.2037 1.38333 69.1037 1.75 70.9037 1.75C73.7704 1.85 77.1204 1.9 80.9537 1.9C82.9204 1.9 85.0037 1.86667 87.2037 1.8L90.6037 1.75C91.8037 1.75 92.687 1.66667 93.2537 1.5C93.8537 1.33333 94.237 0.999998 94.4037 0.499998C94.437 0.366665 94.537 0.299998 94.7037 0.299998C94.8704 0.299998 94.9537 0.366665 94.9537 0.499998C94.8537 1.46666 94.7537 2.93333 94.6537 4.9C94.5537 6.86667 94.5037 8.46667 94.5037 9.7C94.5037 9.76667 94.4037 9.8 94.2037 9.8C94.0037 9.8 93.9037 9.76667 93.9037 9.7C93.8037 7.1 93.2704 5.28333 92.3037 4.25C91.337 3.18333 89.737 2.65 87.5037 2.65C86.0037 2.65 84.937 2.71666 84.3037 2.85C83.6704 2.98333 83.237 3.26667 83.0037 3.7C82.7704 4.13333 82.6537 4.86667 82.6537 5.9V28.95C82.6537 29.9833 82.7704 30.7333 83.0037 31.2C83.237 31.6667 83.687 31.9833 84.3537 32.15C85.0204 32.3167 86.0704 32.4 87.5037 32.4C87.6037 32.4 87.6537 32.5 87.6537 32.7C87.6537 32.9 87.6037 33 87.5037 33C86.4037 33 85.5204 32.9833 84.8537 32.95L80.9537 32.9L77.2037 32.95C76.537 32.9833 75.6204 33 74.4537 33C74.387 33 74.3537 32.9 74.3537 32.7C74.3537 32.5 74.387 32.4 74.4537 32.4C75.887 32.4 76.937 32.3167 77.6037 32.15C78.2704 31.9833 78.7204 31.6667 78.9537 31.2C79.2204 30.7 79.3537 29.95 79.3537 28.95V5.8C79.3537 4.76666 79.237 4.05 79.0037 3.65C78.7704 3.21667 78.337 2.95 77.7037 2.85C77.0704 2.71666 75.987 2.65 74.4537 2.65ZM106.693 28.95C106.693 29.9833 106.793 30.7333 106.993 31.2C107.193 31.6667 107.576 31.9833 108.143 32.15C108.743 32.3167 109.676 32.4 110.943 32.4C111.043 32.4 111.093 32.5 111.093 32.7C111.093 32.9 111.043 33 110.943 33C109.943 33 109.143 32.9833 108.543 32.95L104.993 32.9L101.543 32.95C100.943 32.9833 100.126 33 99.0932 33C98.9932 33 98.9432 32.9 98.9432 32.7C98.9432 32.5 98.9932 32.4 99.0932 32.4C100.36 32.4 101.276 32.3167 101.843 32.15C102.443 31.9833 102.843 31.6667 103.043 31.2C103.276 30.7 103.393 29.95 103.393 28.95V5.8C103.393 4.8 103.276 4.06667 103.043 3.6C102.843 3.13333 102.443 2.81666 101.843 2.65C101.276 2.45 100.36 2.35 99.0932 2.35C98.9932 2.35 98.9432 2.25 98.9432 2.05C98.9432 1.85 98.9932 1.75 99.0932 1.75L101.543 1.8C102.943 1.86667 104.093 1.9 104.993 1.9C105.993 1.9 107.193 1.86667 108.593 1.8L110.943 1.75C111.043 1.75 111.093 1.85 111.093 2.05C111.093 2.25 111.043 2.35 110.943 2.35C109.71 2.35 108.793 2.45 108.193 2.65C107.593 2.85 107.193 3.2 106.993 3.7C106.793 4.16667 106.693 4.9 106.693 5.9V28.95ZM120.595 7.6C120.595 8.9 120.911 10.0333 121.545 11C122.178 11.9667 122.945 12.7833 123.845 13.45C124.745 14.0833 126.011 14.9 127.645 15.9C129.378 16.9333 130.728 17.8 131.695 18.5C132.661 19.2 133.478 20.1 134.145 21.2C134.845 22.2667 135.195 23.55 135.195 25.05C135.195 26.65 134.795 28.1 133.995 29.4C133.195 30.7 132.011 31.7333 130.445 32.5C128.911 33.2333 127.061 33.6 124.895 33.6C122.328 33.6 119.978 33.0167 117.845 31.85C117.678 31.75 117.561 31.6333 117.495 31.5C117.461 31.3667 117.428 31.1667 117.395 30.9L116.745 24.1C116.711 23.9667 116.778 23.8833 116.945 23.85C117.145 23.8167 117.261 23.8667 117.295 24C117.795 26.3667 118.778 28.4333 120.245 30.2C121.711 31.9333 123.645 32.8 126.045 32.8C127.711 32.8 129.111 32.35 130.245 31.45C131.411 30.5167 131.995 29.05 131.995 27.05C131.995 25.55 131.661 24.25 130.995 23.15C130.328 22.05 129.511 21.15 128.545 20.45C127.611 19.7167 126.328 18.8667 124.695 17.9C123.095 16.9333 121.828 16.1 120.895 15.4C119.995 14.7 119.228 13.8167 118.595 12.75C117.961 11.6833 117.645 10.4333 117.645 9C117.645 7.33333 118.078 5.91667 118.945 4.75C119.845 3.55 120.995 2.66667 122.395 2.1C123.828 1.5 125.345 1.2 126.945 1.2C128.911 1.2 130.861 1.6 132.795 2.4C133.295 2.56666 133.545 2.85 133.545 3.25L133.895 8.95C133.895 9.11667 133.795 9.2 133.595 9.2C133.428 9.2 133.328 9.13333 133.295 9C133.061 7.26667 132.361 5.66667 131.195 4.2C130.028 2.7 128.345 1.95 126.145 1.95C124.278 1.95 122.878 2.5 121.945 3.6C121.045 4.66666 120.595 6 120.595 7.6ZM147.305 2.65C145.239 2.65 143.672 3.18333 142.605 4.25C141.572 5.31666 140.822 7.13333 140.355 9.7C140.355 9.76667 140.255 9.8 140.055 9.8C139.889 9.8 139.805 9.76667 139.805 9.7C139.939 8.5 140.089 6.93333 140.255 5C140.422 3.06667 140.505 1.61667 140.505 0.649999C140.505 0.483333 140.589 0.399999 140.755 0.399999C140.955 0.399999 141.055 0.483333 141.055 0.649999C141.055 1.38333 141.955 1.75 143.755 1.75C146.622 1.85 149.972 1.9 153.805 1.9C155.772 1.9 157.855 1.86667 160.055 1.8L163.455 1.75C164.655 1.75 165.539 1.66667 166.105 1.5C166.705 1.33333 167.089 0.999998 167.255 0.499998C167.289 0.366665 167.389 0.299998 167.555 0.299998C167.722 0.299998 167.805 0.366665 167.805 0.499998C167.705 1.46666 167.605 2.93333 167.505 4.9C167.405 6.86667 167.355 8.46667 167.355 9.7C167.355 9.76667 167.255 9.8 167.055 9.8C166.855 9.8 166.755 9.76667 166.755 9.7C166.655 7.1 166.122 5.28333 165.155 4.25C164.189 3.18333 162.589 2.65 160.355 2.65C158.855 2.65 157.789 2.71666 157.155 2.85C156.522 2.98333 156.089 3.26667 155.855 3.7C155.622 4.13333 155.505 4.86667 155.505 5.9V28.95C155.505 29.9833 155.622 30.7333 155.855 31.2C156.089 31.6667 156.539 31.9833 157.205 32.15C157.872 32.3167 158.922 32.4 160.355 32.4C160.455 32.4 160.505 32.5 160.505 32.7C160.505 32.9 160.455 33 160.355 33C159.255 33 158.372 32.9833 157.705 32.95L153.805 32.9L150.055 32.95C149.389 32.9833 148.472 33 147.305 33C147.239 33 147.205 32.9 147.205 32.7C147.205 32.5 147.239 32.4 147.305 32.4C148.739 32.4 149.789 32.3167 150.455 32.15C151.122 31.9833 151.572 31.6667 151.805 31.2C152.072 30.7 152.205 29.95 152.205 28.95V5.8C152.205 4.76666 152.089 4.05 151.855 3.65C151.622 3.21667 151.189 2.95 150.555 2.85C149.922 2.71666 148.839 2.65 147.305 2.65Z" fill="#49676E"/>
</svg>
