<svg width="30" height="24" viewBox="0 0 30 24" fill="none" xmlns="http://www.w3.org/2000/svg">
<path d="M22.5 6H20C20 3.79 17.7625 2 15 2C12.2375 2 10 3.79 10 6H7.5C6.125 6 5 6.9 5 8V20C5 21.1 6.125 22 7.5 22H22.5C23.875 22 25 21.1 25 20V8C25 6.9 23.875 6 22.5 6ZM15 4C16.375 4 17.5 4.9 17.5 6H12.5C12.5 4.9 13.625 4 15 4ZM22.5 20H7.5V8H10V10C10 10.55 10.5625 11 11.25 11C11.9375 11 12.5 10.55 12.5 10V8H17.5V10C17.5 10.55 18.0625 11 18.75 11C19.4375 11 20 10.55 20 10V8H22.5V20Z" fill="#49676E"/>
</svg>
